# xmcd CD database file
#
# Track frame offsets:
#	150
#	11490
#	38940
#	68415
#	77940
#	92715
#	117690
#	133590
#	157740
#	195690
#
# Disc length: 3179 seconds
#
# Revision: 0
# Processed by: cddbd v1.5.2PL0 Copyright (c) Steve Scherf et al.
# Submitted via: CDex 1.70beta2
#
DISCID=7c0c690a
DTITLE=Tschiritsch's Urwerk - Nr. 3
DYEAR=1900
DGENRE=Jazz
TTITLE0=Radetzky-Marsch
TTITLE1=Zillertal
TTITLE2=Lacrimosa
TTITLE3=I Want To Hold Your Hand
TTITLE4=La Paloma
TTITLE5=Falmenco
TTITLE6=Csardas
TTITLE7=Ayiras
TTITLE8=Obatala
TTITLE9=Tierisch !
EXTD=
EXTT0=
EXTT1=
EXTT2=
EXTT3=
EXTT4=
EXTT5=
EXTT6=
EXTT7=
EXTT8=
EXTT9=
PLAYORDER=
